HIERARCHY
ROOT hip
{
  OFFSET 0 0 0
  CHANNELS 6 Xposition Yposition Zposition Zrotation Yrotation Xrotation
  JOINT abdomen
  {
    OFFSET 0 20.6881 -0.73152
    CHANNELS 3 Zrotation Xrotation Yrotation
    JOINT chest
    {
      OFFSET 0 11.7043 -0.48768
      CHANNELS 3 Zrotation Xrotation Yrotation
      JOINT neck
      {
        OFFSET 0 22.1894 -2.19456
        CHANNELS 3 Zrotation Xrotation Yrotation
        JOINT head
        {
          OFFSET -0.24384 7.07133 1.2192
          CHANNELS 3 Zrotation Xrotation Yrotation
          JOINT leftEye
          {
            OFFSET 4.14528 8.04674 8.04672
            CHANNELS 3 Zrotation Xrotation Yrotation
            End Site
            {
              OFFSET 1 0 0
            }
          }
          JOINT rightEye
          {
            OFFSET -3.6576 8.04674 8.04672
            CHANNELS 3 Zrotation Xrotation Yrotation
            End Site
            {
              OFFSET 1 0 0
            }
          }
        }
      }
      JOINT rCollar
      {
        OFFSET -2.68224 19.2634 -4.8768
        CHANNELS 3 Zrotation Xrotation Yrotation
        JOINT rShldr
        {
          OFFSET -8.77824 -1.95073 1.46304
          CHANNELS 3 Zrotation Xrotation Yrotation
          JOINT rForeArm
          {
            OFFSET -28.1742 -1.7115 0.48768
            CHANNELS 3 Zrotation Xrotation Yrotation
            JOINT rHand
            {
              OFFSET -22.5879 0.773209 7.07136
              CHANNELS 3 Zrotation Xrotation Yrotation
              JOINT rThumb1
              {
                OFFSET -1.2192 -0.487915 3.41376
                CHANNELS 3 Zrotation Xrotation Yrotation
                JOINT rThumb2
                {
                  OFFSET -3.37035 -0.52449 3.41376
                  CHANNELS 3 Zrotation Xrotation Yrotation
                  End Site
                  {
                    OFFSET -1.78271 -1.18214 1.43049
                  }
                }
              }
              JOINT rIndex1
              {
                OFFSET -7.75947 0.938293 5.60832
                CHANNELS 3 Zrotation Xrotation Yrotation
                JOINT rIndex2
                {
                  OFFSET -2.54057 -0.884171 1.56538
                  CHANNELS 3 Zrotation Xrotation Yrotation
                  End Site
                  {
                    OFFSET -1.62519 -0.234802 1.16502
                  }
                }
              }
              JOINT rMid1
              {
                OFFSET -8.24714 1.18213 3.41376
                CHANNELS 3 Zrotation Xrotation Yrotation
                JOINT rMid2
                {
                  OFFSET -3.10165 -0.590103 1.0647
                  CHANNELS 3 Zrotation Xrotation Yrotation
                  End Site
                  {
                    OFFSET -2.48547 -0.328903 0.83742
                  }
                }
              }
              JOINT rRing1
              {
                OFFSET -8.82822 0.546677 1.51678
                CHANNELS 3 Zrotation Xrotation Yrotation
                JOINT rRing2
                {
                  OFFSET -2.60934 -0.819778 -0.0198488
                  CHANNELS 3 Zrotation Xrotation Yrotation
                  End Site
                  {
                    OFFSET -2.33842 -0.294052 0.168128
                  }
                }
              }
              JOINT rPinky1
              {
                OFFSET -8.27202 -0.0477905 -0.4584
                CHANNELS 3 Zrotation Xrotation Yrotation
                JOINT rPinky2
                {
                  OFFSET -1.82734 -0.647385 -0.700984
                  CHANNELS 3 Zrotation Xrotation Yrotation
                  End Site
                  {
                    OFFSET -1.69225 -0.51767 -0.607171
                  }
                }
              }
            }
          }
        }
      }
      JOINT lCollar
      {
        OFFSET 2.68224 19.2634 -4.8768
        CHANNELS 3 Zrotation Xrotation Yrotation
        JOINT lShldr
        {
          OFFSET 8.77824 -1.95073 1.46304
          CHANNELS 3 Zrotation Xrotation Yrotation
          JOINT lForeArm
          {
            OFFSET 28.1742 -1.7115 0.48768
            CHANNELS 3 Zrotation Xrotation Yrotation
            JOINT lHand
            {
              OFFSET 22.5879 0.773209 7.07136
              CHANNELS 3 Zrotation Xrotation Yrotation
              JOINT lThumb1
              {
                OFFSET 1.2192 -0.487915 3.41376
                CHANNELS 3 Zrotation Xrotation Yrotation
                JOINT lThumb2
                {
                  OFFSET 3.37035 -0.52449 3.41376
                  CHANNELS 3 Zrotation Xrotation Yrotation
                  End Site
                  {
                    OFFSET 1.78271 -1.18214 1.43049
                  }
                }
              }
              JOINT lIndex1
              {
                OFFSET 7.75947 0.938293 5.60832
                CHANNELS 3 Zrotation Xrotation Yrotation
                JOINT lIndex2
                {
                  OFFSET 2.54057 -0.884171 1.56538
                  CHANNELS 3 Zrotation Xrotation Yrotation
                  End Site
                  {
                    OFFSET 1.62519 -0.234802 1.16502
                  }
                }
              }
              JOINT lMid1
              {
                OFFSET 8.24714 1.18213 3.41376
                CHANNELS 3 Zrotation Xrotation Yrotation
                JOINT lMid2
                {
                  OFFSET 3.10165 -0.590103 1.0647
                  CHANNELS 3 Zrotation Xrotation Yrotation
                  End Site
                  {
                    OFFSET 2.48547 -0.328903 0.83742
                  }
                }
              }
              JOINT lRing1
              {
                OFFSET 8.82822 0.546677 1.51678
                CHANNELS 3 Zrotation Xrotation Yrotation
                JOINT lRing2
                {
                  OFFSET 2.60934 -0.819778 -0.0198488
                  CHANNELS 3 Zrotation Xrotation Yrotation
                  End Site
                  {
                    OFFSET 2.33842 -0.294052 0.168128
                  }
                }
              }
              JOINT lPinky1
              {
                OFFSET 8.27202 -0.0477905 -0.4584
                CHANNELS 3 Zrotation Xrotation Yrotation
                JOINT lPinky2
                {
                  OFFSET 1.82734 -0.647385 -0.700984
                  CHANNELS 3 Zrotation Xrotation Yrotation
                  End Site
                  {
                    OFFSET 1.69225 -0.51767 -0.607171
                  }
                }
              }
            }
          }
        }
      }
    }
  }
  JOINT rButtock
  {
    OFFSET -8.77824 4.35084 1.2192
    CHANNELS 3 Zrotation Xrotation Yrotation
    JOINT rThigh
    {
      OFFSET 0 -1.70687 -2.19456
      CHANNELS 3 Zrotation Xrotation Yrotation
      JOINT rShin
      {
        OFFSET 0 -36.8199 0.73152
        CHANNELS 3 Zrotation Xrotation Yrotation
        JOINT rFoot
        {
          OFFSET 0.73152 -45.1104 -5.12064
          CHANNELS 3 Zrotation Xrotation Yrotation
          End Site
          {
            OFFSET -1.1221 -3.69964 12.103
          }
        }
      }
    }
  }
  JOINT lButtock
  {
    OFFSET 8.77824 4.35084 1.2192
    CHANNELS 3 Zrotation Xrotation Yrotation
    JOINT lThigh
    {
      OFFSET 0 -1.70687 -2.19456
      CHANNELS 3 Zrotation Xrotation Yrotation
      JOINT lShin
      {
        OFFSET 0 -36.8199 0.73152
        CHANNELS 3 Zrotation Xrotation Yrotation
        JOINT lFoot
        {
          OFFSET -0.73152 -45.1104 -5.12064
          CHANNELS 3 Zrotation Xrotation Yrotation
          End Site
          {
            OFFSET 1.1221 -3.69964 12.103
          }
        }
      }
    }
  }
}
MOTION
Frames:	9
Frame Time:	0.00833333
0.0 0.0 0.0 0.0 0.0 0.0 0.0 0.0 0.0 0.0 0.0 0.0 0.0 0.0 0.0 0.0 0.0 0.0 0.0 0.0 0.0 0.0 0.0 0.0 0.0 0.0 0.0 0.0 0.0 0.0 0.0 0.0 0.0 0.0 0.0 0.0 0.0 0.0 0.0 0.0 0.0 0.0 0.0 0.0 0.0 0.0 0.0 0.0 0.0 0.0 0.0 0.0 0.0 0.0 0.0 0.0 0.0 0.0 0.0 0.0 0.0 0.0 0.0 0.0 0.0 0.0 0.0 0.0 0.0 0.0 0.0 0.0 0.0 0.0 0.0 0.0 0.0 0.0 0.0 0.0 0.0 0.0 0.0 0.0 0.0 0.0 0.0 0.0 0.0 0.0 0.0 0.0 0.0 0.0 0.0 0.0 0.0 0.0 0.0 0.0 0.0 0.0 0.0 0.0 0.0 0.0 0.0 0.0 0.0 0.0 0.0 0.0 0.0 0.0 0.0 0.0 0.0 0.0 0.0 0.0 0.0 0.0 0.0 0.0 0.0 0.0 0.0 0.0 0.0 0.0 0.0 0.0
-85.62480000000001 84.1629 -10.1019 -48.496894 84.637347 -36.67395 2.369145 -8.757578 -180.0 0.586569 -6.330285 -179.445477 2.206982 -0.658915 20.281758 -48.527775 25.411048 -11.112366 0.000771 -0.0 -0.002192 0.002255 0.0 0.004826 -151.981742 14.727804 157.381893 -143.532158 47.249226 138.50812 158.182252 -44.01206 93.569363 173.129035 -12.891991 143.974867 -172.746054 -10.423677 89.928965 -135.483022 11.193657 67.823403 -169.305262 -47.434779 121.429235 -169.919053 -36.531907 116.651916 -89.835527 60.700927 81.262407 -163.559748 -6.243149 143.301971 -145.12133 0.267712 -179.212523 7.722876 -21.548686 -12.222515 -110.056034 -41.784554 -108.129008 4.554077 3.335177 -0.374441 9.652161 34.836011 -11.199919 148.131965 -3.421604 -168.454572 -54.592 -3.308167 29.482263 164.299219 42.993419 -136.82254 0.441343 0.435436 -0.06869 94.420741 17.088005 -86.479638 -78.320948 -74.344314 -30.811583 163.665185 -27.361698 -114.588403 -0.235022 -0.68936 0.129435 -179.020669 -51.020113 -140.779146 -0.000474 0.063761 -0.020126 -11.10574 -13.792378 1.714161 77.069619 -51.586563 75.530405 -42.046385 80.39851 4.654593 179.993625 75.750391 0.004362 -174.504689 66.756618 -37.381488 -5.507092 17.026702 178.43874 -145.672469 6.22002 160.55871 179.993399 75.749445 0.004516 -175.462652 70.096953 -17.142902 3.02803 5.54701 60.944109 -155.356611 -17.98705 39.435834
-85.526 84.16789999999999 -9.9374 -48.28395 84.482929 -36.422321 2.452926 -12.102823 129.250575 5.201008 -4.867863 -128.324274 8.558651 5.06687 80.27389 145.523412 65.361805 120.445981 -0.001792 0.0 -0.006198 0.00106 0.0 0.001386 0.022751 -0.138662 -0.030955 -130.095021 77.603146 179.67248 -119.781645 -49.660216 -61.698688 1.418597 -12.397217 -0.903188 -103.199971 36.331265 60.111128 -132.336953 -17.48496 74.536953 -1.95607 3.105913 1.139598 -10.674599 26.260778 8.721593 5.894189 -18.351814 -2.543467 86.231041 -78.342748 57.56264 -145.120046 0.185571 -179.186306 12.119409 44.68435 -3.86639 -1.148561 -2.914366 -1.06688 -162.536865 64.117081 -149.917734 155.41762 -2.951546 -161.718119 -145.221907 -41.039944 -162.922834 9.222242 -65.509673 -58.924398 6.954115 5.017157 1.769425 -172.32644 -24.358571 -87.60764 79.638507 14.612831 -25.049111 159.786368 -32.611315 -122.69009 166.448689 -28.869892 -118.692821 36.036883 51.722932 -29.83233 -86.350148 -78.248681 -57.443224 -0.001234 -0.018496 0.006099 155.414024 -1.111646 -171.97812 146.205668 15.405002 142.732745 22.828752 -37.991773 24.251742 -0.003428 -0.001493 -0.001714 2.433713 -13.184004 0.602499 -3.393361 21.107928 -137.545728 32.030731 -11.400584 142.705818 0.000707 0.000543 -0.000909 2.030878 -9.283983 43.104505 1.242708 8.828303 -95.932326 174.255742 -46.756666 -77.506964
-85.4301 84.1712 -9.784600000000001 -48.60151 84.376428 -36.709915 6.086348 -11.949282 1.513689 -1.948902 4.707182 -0.065886 -10.409539 13.792805 -113.385107 -146.994088 -44.076815 -79.014877 0.003302 -0.0 -0.002554 0.000843 0.0 0.002258 -80.166117 68.372505 83.260689 71.809993 -16.964206 68.470066 155.880876 35.586902 59.966754 -175.959624 13.014756 142.700554 -164.698114 -2.372174 89.584857 120.909399 -56.179846 84.833366 -0.32825 0.5297 0.186303 -161.488702 -13.559607 110.108229 -160.674712 -6.667975 143.243729 -163.510138 -5.438259 143.030613 -145.106904 3.679627 179.715207 9.924077 -0.118443 -8.999251 8.368165 26.426692 7.362797 -155.1887 38.108715 -148.385506 150.168473 21.535016 -155.274749 158.282108 53.022438 -107.141933 153.304373 -86.261471 -71.368765 176.787628 -3.547136 -142.853797 6.769583 6.520922 -1.415121 -11.186928 -12.681921 3.772395 -73.420912 -73.570708 -26.564918 -141.353806 -64.822015 -77.677724 153.320502 13.628448 -138.861023 -167.367051 -63.99135 -132.421228 0.00046 0.022486 -0.008017 78.278385 78.779782 -91.693587 152.505277 38.522937 147.797986 147.773359 10.922337 141.626482 0.0 -0.000396 0.000396 3.195939 -17.138436 10.729461 -3.305705 19.290227 -88.949414 165.062909 -22.672108 -69.200495 0.000783 0.0005 0.001174 4.480202 -14.244788 -170.898912 -7.777101 -16.579096 -101.938756 -91.537328 57.107348 -5.803737
-85.33420000000001 84.1748 -9.6414 -48.933793 84.252491 -37.055105 9.851655 -17.739132 -109.941685 -6.623657 -7.739858 111.947937 5.860012 2.705341 71.656677 142.271702 -6.438106 86.706831 -0.001559 0.0 -0.002448 0.003382 0.0 0.000438 0.163083 -0.990134 -0.217736 -88.008531 -23.822788 -171.23203 66.233255 -32.43806 -134.157215 -147.39101 56.971325 122.587921 4.531088 -4.514035 -0.51972 -116.020518 -0.652098 105.118306 16.329431 -29.348517 -5.839124 -163.342406 -21.19289 110.813057 -0.34002 0.981683 0.191382 84.331505 -78.250293 55.678237 0.000544 0.063534 0.021604 9.082985 14.085965 1.869314 5.948583 17.838156 5.336441 -76.240722 -54.810905 -75.569345 -4.238684 -44.742761 8.648341 -89.30577 25.092178 45.00388 -157.24627 -2.164324 -26.846101 159.976492 32.491265 -133.218213 4.034396 3.931857 -0.754079 11.505994 11.849549 -12.191196 -37.21518 -57.918032 0.644394 3.873784 27.711338 -5.139489 0.285873 0.832891 -0.160099 162.990278 -3.909106 -143.258094 0.021159 -1.725862 0.543685 154.778526 5.436702 -171.140036 144.984107 11.469158 141.653962 76.248435 -52.927848 75.890394 179.998281 75.751102 0.001774 -173.050603 55.75872 -0.0 9.046504 20.823693 98.5727 117.481895 74.968116 158.839997 -179.937939 75.751096 -0.047834 -168.925011 61.249227 -12.585603 3.93549 19.249582 104.917782 -28.378975 29.003035 -82.076773
-85.207 84.18369999999999 -9.4852 -48.965841 84.070445 -37.184755 8.054072 -15.464977 2.4862 -2.68855 6.187741 0.010296 -12.698411 9.034021 -87.261331 -140.112899 15.157663 -72.278818 -0.004168 -0.0 0.004591 0.000879 -0.0 -0.001064 -142.314891 40.593103 146.689225 -115.92609 20.305893 65.246911 5.755096 -12.412534 -147.339656 177.574239 -11.183388 143.482589 -176.598174 -14.213239 89.690569 147.12155 -48.347665 101.312109 -90.224692 41.072975 75.797271 64.827089 -61.188336 21.150102 -89.835661 60.70179 81.262565 -144.178445 37.140035 131.444916 -145.118807 0.267646 -179.212729 11.906056 29.602426 -5.641253 44.736053 86.377843 -5.369542 15.147356 44.070702 7.297411 -0.162839 -0.990092 0.21831 85.538651 -0.275663 -178.83842 -108.980934 -59.91668 131.231416 25.016245 31.918019 -7.054316 0.492052 0.484431 -0.078225 -28.784127 -47.313362 17.196501 -37.216963 -57.917452 0.643261 82.33938 50.638394 -68.72285 125.642938 49.839244 -115.273297 111.614122 59.784366 -102.306997 145.101348 -1.522454 178.650691 147.997013 -43.026392 170.608648 144.645046 10.415867 141.354647 147.658932 12.096947 141.791257 179.994805 75.74893 0.00536 -172.627855 52.653618 170.756189 8.732379 -22.60272 108.91892 90.787469 46.816449 2.646967 179.986348 75.749135 0.009341 -168.01829 60.559952 -10.354411 -4.76944 11.827248 -37.364369 94.421746 37.495606 -5.348638
-85.0279 84.2008 -9.3232 -49.185135 83.868331 -37.628176 7.219887 -15.462549 25.415259 0.765458 6.588313 -22.720781 -10.945549 12.137197 -106.079933 -135.035857 1.59408 -86.979446 -0.001751 -0.0 0.003924 0.000881 -0.0 -0.000723 0.022981 -0.138626 -0.031114 -97.888837 68.67322 -170.178168 135.73308 72.166324 75.732406 -177.631586 4.397353 142.976329 -160.052134 2.213208 88.877586 12.5819 -53.211097 19.157662 -169.303971 -47.434593 121.431654 -152.75326 -3.968445 118.485959 173.121849 -66.297609 137.612792 -4.99759 20.723432 4.541798 0.001449 0.022668 0.006779 -155.830615 -7.866672 172.798479 -3.810664 -9.064739 -3.56037 -22.611553 -40.196543 -23.527354 158.468461 -30.055536 -166.919794 -28.008031 70.51461 88.842995 68.614305 44.671772 165.164194 -9.771987 -60.49255 1.440847 5.132242 4.978821 -1.005265 -30.731302 -44.534577 13.980618 -26.911416 -46.393602 4.928103 -21.204258 -8.175334 3.781535 0.287593 0.83261 -0.160053 42.064974 58.559182 -36.102936 145.113218 -0.356483 179.016604 153.595465 -16.731548 176.839719 -39.995729 85.641219 0.908948 74.736155 -53.954397 73.418164 -0.002815 -0.001838 -0.001407 5.186331 -19.982725 -0.0 5.042204 18.189697 69.52513 -161.591257 -42.928168 102.015957 179.989387 75.749642 0.007261 -167.814682 58.670657 -180.0 -4.881755 -25.699171 -31.30045 -36.082616 10.863088 -146.107029
-84.85040000000001 84.2157 -9.1678 -50.161972 83.720976 -38.85518 9.326973 -19.051908 -153.290864 -0.733514 -11.182953 157.104115 8.204356 3.739935 78.834862 140.29201 -14.632979 87.351727 0.002549 -0.0 -0.00087 -0.003407 0.0 -0.000397 0.118392 -0.714021 -0.157945 -14.795191 -78.635831 -104.042976 -29.729552 -16.748677 -163.114325 158.844547 -52.353954 135.168276 2.016228 -2.00046 -0.275111 -104.893094 10.284105 95.526122 -46.208119 39.653199 36.318145 -67.693616 50.201897 47.949288 0.290766 -0.849563 -0.159989 3.162176 0.193317 3.3e-05 -81.518371 -71.914864 -98.959241 -52.71486 -81.874079 -78.570961 -144.26006 9.237982 -141.009188 -146.120013 7.757333 -140.730417 158.515304 -30.702281 -167.03774 -131.75318 -9.659153 157.920305 175.815074 -5.039891 -33.043754 171.36552 2.383219 -141.821363 16.445392 14.991166 -4.627431 114.205666 -10.630664 -100.359664 46.209613 39.652306 -36.318369 -12.994344 -9.737072 3.376751 153.322115 13.628905 -138.861528 7.166062 25.632614 -6.2582 145.100371 -1.520047 178.650199 79.165491 87.68144 -92.610204 16.661531 -29.659262 15.920261 22.380816 -40.162351 23.75693 2e-06 0.000509 -3e-06 5.046173 -19.003196 15.172388 11.425533 17.809158 76.330989 -119.314166 -52.795558 156.662767 -0.001007 -0.001325 -0.001007 5.897387 -13.453663 23.939842 12.453265 14.662519 67.697655 -54.84956 48.811833 -47.981541
-84.7095 84.1994 -9.0353 -51.175196 83.669779 -40.06434 8.231158 -18.847489 -180.0 3.359779 -10.43194 -175.71197 -3.499126 -1.950165 -7.143809 176.125081 29.346543 9.692585 -0.000803 0.0 -0.002027 -0.000803 0.0 -0.002027 -0.164901 0.97911 0.219872 84.705301 9.147924 -6.437007 -20.166449 9.61441 118.457564 0.153928 -14.753146 -1.900608 -4.165828 4.057613 0.784665 -114.533921 -4.899915 103.476065 -95.097881 39.749985 80.125069 -3.716869 15.780868 -2.0027 -147.863424 25.094777 134.771579 -163.529286 -5.848581 143.107677 -74.841478 72.963234 92.827132 -159.845047 0.100191 176.30012 -145.17477 12.067865 -141.821908 -147.333351 11.049895 -141.54229 85.537379 68.182956 -88.688982 -74.105269 -10.973056 -84.276815 -89.025923 40.694887 -71.570821 66.345303 60.574364 -45.144425 169.572162 -7.253692 -89.93052 45.124989 -17.502466 -9.003012 141.998381 -0.612674 -116.934044 -10.831959 -2.689271 9.772953 36.035798 51.722714 -29.833557 -11.575849 -24.900579 1.461604 8.4e-05 0.063831 -0.020119 156.117023 -13.744353 -173.484719 113.835405 -39.281768 111.845588 -13.42594 30.989165 -5.364818 -0.004841 8.3e-05 -0.00242 6.249183 -18.468892 -34.338739 -6.916887 13.700131 78.231152 55.023771 -67.673608 -28.762211 -0.005626 0.000306 -0.005626 6.456565 -12.836951 1.565864 -3.29818 10.615787 -24.623491 71.086074 21.586345 8.942482
